<?xml version="1.0" standalone="no"?>
<!DOCTYPE svg PUBLIC "-//W3C//DTD SVG 20010904//EN"
 "http://www.w3.org/TR/2001/REC-SVG-20010904/DTD/svg10.dtd">
<svg version="1.0" xmlns="http://www.w3.org/2000/svg"
 width="360.000000pt" height="360.000000pt" viewBox="0 0 360.000000 360.000000"
 preserveAspectRatio="xMidYMid meet">

<g transform="translate(0.000000,360.000000) scale(0.100000,-0.100000)"
fill="#000000" stroke="none">
<path d="M1785 2973 c-3 -16 -59 -190 -123 -388 l-118 -360 -413 -5 -413 -5
331 -240 c182 -132 331 -244 331 -250 0 -5 -56 -181 -124 -390 -69 -209 -123
-381 -121 -383 2 -2 152 105 334 237 l331 241 331 -241 c182 -132 332 -239
334 -237 2 2 -52 174 -121 383 -68 209 -124 385 -124 390 0 6 149 118 331 250
l331 240 -413 5 -413 5 -118 360 c-64 198 -120 372 -123 388 -4 15 -10 27 -15
27 -5 0 -11 -12 -15 -27z m114 -558 l92 -285 306 -2 307 -3 -230 -167 c-126
-91 -237 -172 -247 -180 -16 -12 -11 -31 73 -293 50 -154 93 -286 96 -294 3
-10 1 -11 -8 -4 -7 6 -120 88 -250 182 l-238 172 -237 -172 c-131 -94 -244
-176 -251 -182 -9 -7 -11 -6 -8 4 3 8 46 140 96 294 84 262 89 281 73 293 -10
8 -121 89 -247 180 l-230 167 307 3 306 2 92 285 c51 157 96 285 99 285 3 0
48 -128 99 -285z"/>
</g>
</svg>
